<svg xmlns="http://www.w3.org/2000/svg" xmlns:xlink="http://www.w3.org/1999/xlink" width="500" zoomAndPan="magnify" viewBox="0 0 375 374.999991" height="500" preserveAspectRatio="xMidYMid meet" version="1.0"><defs><clipPath id="62016c8b89"><path d="M 99.25 26 L 275.5 26 L 275.5 324 L 99.25 324 Z M 99.25 26 " clip-rule="nonzero"/></clipPath></defs><g clip-path="url(#62016c8b89)"><path fill="#5c143a" d="M 253.230469 228.566406 L 246.125 223.820312 L 246.125 184.910156 C 246.125 91.429688 198.273438 26.894531 191.636719 26.894531 L 184.058594 26.894531 C 178.847656 26.894531 128.625 88.109375 128.625 184.910156 L 128.625 223.820312 C 122.9375 227.617188 99.25 240.429688 99.25 269.847656 C 99.25 319.199219 97.828125 319.671875 103.039062 322.519531 C 108.25 325.367188 109.671875 322.992188 133.835938 306.859375 C 141.890625 301.640625 149.472656 300.21875 158.472656 300.21875 C 158.472656 307.335938 162.738281 311.128906 167.949219 311.128906 L 206.324219 311.128906 C 211.0625 311.128906 215.800781 307.808594 215.800781 300.21875 C 223.855469 300.21875 231.4375 301.164062 240.4375 306.859375 C 264.601562 322.992188 266.023438 325.367188 271.234375 322.519531 C 276.445312 319.671875 275.027344 318.722656 275.027344 269.847656 C 275.5 253.714844 266.972656 238.054688 253.230469 228.566406 Z M 187.375 192.5 C 175.054688 192.5 165.105469 182.535156 165.105469 170.199219 C 165.105469 157.863281 175.054688 147.898438 187.375 147.898438 C 199.691406 147.898438 209.644531 157.863281 209.644531 170.199219 C 209.644531 182.535156 199.691406 192.5 187.375 192.5 Z M 187.375 116.578125 C 162.738281 116.578125 157.050781 82.886719 178.847656 73.871094 C 183.585938 71.972656 187.847656 71.972656 187.375 71.972656 C 199.21875 71.972656 209.644531 81.464844 209.644531 94.277344 C 209.644531 107.089844 199.21875 116.578125 187.375 116.578125 Z M 187.375 116.578125 " fill-opacity="1" fill-rule="nonzero"/></g><path fill="#5c143a" d="M 207.273438 325.839844 L 167.949219 325.839844 C 162.261719 325.839844 159.421875 332.957031 163.210938 336.753906 L 183.109375 356.683594 C 185.480469 359.058594 189.742188 359.058594 192.113281 356.683594 L 212.011719 336.753906 C 215.800781 332.957031 212.960938 325.839844 207.273438 325.839844 Z M 207.273438 325.839844 " fill-opacity="1" fill-rule="nonzero"/><path fill="#5c143a" d="M 190.691406 25.472656 C 191.636719 25.472656 192.113281 24.523438 191.636719 24.046875 L 187.375 16.457031 C 181.214844 26.894531 180.742188 25.472656 190.691406 25.472656 Z M 190.691406 25.472656 " fill-opacity="1" fill-rule="nonzero"/></svg>